# MagicaVoxel @ ephtracy

# material
mtllib wheel.mtl
usemtl palette

# normals
vn -1 0 0
vn 1 0 0
vn 0 0 1
vn 0 0 -1
vn 0 -1 0
vn 0 1 0

# texcoords
vt 0.0175781 0.5
vt 0.162109 0.5
vt 0.564453 0.5
vt 0.751953 0.5
vt 0.841797 0.5
vt 0.853516 0.5
vt 0.900391 0.5
vt 0.958984 0.5
vt 0.962891 0.5
vt 0.966797 0.5
vt 0.970703 0.5
vt 0.986328 0.5
vt 0.994141 0.5

# verts
v -27 0 27
v -27 0 -27
v -27 1 27
v -27 1 -27
v -10 3 -1
v -10 3 -8
v -10 4 -1
v -10 4 -3
v -10 4 -6
v -10 4 -8
v -10 5 -1
v -10 5 -2
v -10 5 -3
v -10 5 -6
v -10 5 -7
v -10 5 -8
v -10 6 -1
v -10 6 -2
v -10 6 -7
v -10 6 -8
v -10 8 -1
v -10 8 -8
v -9 2 -1
v -9 2 -2
v -9 2 -7
v -9 2 -8
v -9 3 -1
v -9 3 -2
v -9 3 -7
v -9 3 -8
v -9 8 -1
v -9 8 -8
v -9 9 -1
v -9 9 -8
v -8 9 -1
v -8 9 -8
v -8 10 -1
v -8 10 -8
v -6 1 -1
v -6 1 -2
v -6 1 -7
v -6 1 -8
v -6 2 -1
v -6 2 -2
v -6 2 -7
v -6 2 -8
v 3 1 -1
v 3 1 -2
v 3 1 -7
v 3 1 -8
v 3 2 -1
v 3 2 -2
v 3 2 -7
v 3 2 -8
v 3 7 -2
v 3 7 -7
v 3 8 -2
v 3 8 -7
v 4 8 -2
v 4 8 -7
v 4 9 -2
v 4 9 -7
v 5 6 -2
v 5 6 -7
v 5 7 -2
v 5 7 -7
v 8 3 -2
v 8 3 -7
v 8 4 -2
v 8 4 -7
v 8 5 -2
v 8 5 -3
v 8 5 -4
v 8 5 -5
v 8 5 -6
v 8 5 -7
v 8 6 -2
v 8 6 -3
v 8 6 -4
v 8 6 -5
v 8 6 -6
v 8 6 -7
v -9 3 -2
v -9 3 -7
v -9 4 -2
v -9 4 -7
v -9 5 -2
v -9 5 -7
v -9 8 -2
v -9 8 -7
v -7 8 -2
v -7 8 -7
v -7 9 -2
v -7 9 -7
v -4 1 -1
v -4 1 -2
v -4 1 -7
v -4 1 -8
v -4 2 -1
v -4 2 -2
v -4 2 -7
v -4 2 -8
v 5 1 -1
v 5 1 -2
v 5 1 -7
v 5 1 -8
v 5 2 -1
v 5 2 -2
v 5 2 -7
v 5 2 -8
v 5 9 -1
v 5 9 -8
v 5 10 -1
v 5 10 -8
v 6 7 -1
v 6 7 -8
v 6 9 -1
v 6 9 -8
v 7 2 -1
v 7 2 -2
v 7 2 -7
v 7 2 -8
v 7 3 -1
v 7 3 -2
v 7 3 -7
v 7 3 -8
v 9 3 -1
v 9 3 -8
v 9 4 -1
v 9 4 -8
v 9 5 -1
v 9 5 -2
v 9 5 -3
v 9 5 -4
v 9 5 -5
v 9 5 -6
v 9 5 -7
v 9 5 -8
v 9 6 -1
v 9 6 -2
v 9 6 -3
v 9 6 -4
v 9 6 -5
v 9 6 -6
v 9 6 -7
v 9 6 -8
v 9 7 -1
v 9 7 -8
v 27 0 27
v 27 0 -27
v 27 1 27
v 27 1 -27
v -27 0 27
v -27 1 27
v 27 0 27
v 27 1 27
v -10 3 -1
v -10 4 -1
v -10 5 -1
v -10 6 -1
v -10 8 -1
v -9 2 -1
v -9 3 -1
v -9 5 -1
v -9 6 -1
v -9 8 -1
v -9 9 -1
v -8 9 -1
v -8 10 -1
v -7 2 -1
v -7 4 -1
v -6 1 -1
v -6 2 -1
v -6 4 -1
v -6 5 -1
v -4 1 -1
v -4 2 -1
v -4 4 -1
v -4 5 -1
v -3 2 -1
v -3 4 -1
v 2 2 -1
v 2 4 -1
v 3 1 -1
v 3 2 -1
v 3 4 -1
v 3 5 -1
v 3 7 -1
v 3 9 -1
v 5 1 -1
v 5 2 -1
v 5 4 -1
v 5 5 -1
v 5 9 -1
v 5 10 -1
v 6 2 -1
v 6 4 -1
v 6 7 -1
v 6 9 -1
v 7 2 -1
v 7 3 -1
v 8 5 -1
v 8 6 -1
v 9 3 -1
v 9 4 -1
v 9 5 -1
v 9 6 -1
v 9 7 -1
v -9 2 -7
v -9 3 -7
v -9 4 -7
v -9 5 -7
v -9 8 -7
v -7 2 -7
v -7 4 -7
v -7 8 -7
v -7 9 -7
v -6 1 -7
v -6 2 -7
v -6 4 -7
v -4 1 -7
v -4 2 -7
v -4 4 -7
v -3 2 -7
v -3 4 -7
v 2 2 -7
v 2 4 -7
v 3 1 -7
v 3 2 -7
v 3 4 -7
v 3 7 -7
v 3 8 -7
v 4 7 -7
v 4 8 -7
v 4 9 -7
v 5 1 -7
v 5 2 -7
v 5 4 -7
v 5 6 -7
v 5 7 -7
v 6 2 -7
v 6 4 -7
v 7 2 -7
v 7 3 -7
v 8 3 -7
v 8 4 -7
v 8 5 -7
v 8 6 -7
v -9 2 -2
v -9 3 -2
v -9 4 -2
v -9 5 -2
v -9 8 -2
v -7 2 -2
v -7 4 -2
v -7 8 -2
v -7 9 -2
v -6 1 -2
v -6 2 -2
v -6 4 -2
v -4 1 -2
v -4 2 -2
v -4 4 -2
v -3 2 -2
v -3 4 -2
v 2 2 -2
v 2 4 -2
v 3 1 -2
v 3 2 -2
v 3 4 -2
v 3 7 -2
v 3 8 -2
v 3 9 -2
v 4 7 -2
v 4 8 -2
v 4 9 -2
v 5 1 -2
v 5 2 -2
v 5 4 -2
v 5 6 -2
v 5 7 -2
v 6 2 -2
v 6 4 -2
v 7 2 -2
v 7 3 -2
v 8 3 -2
v 8 4 -2
v 8 5 -2
v 8 6 -2
v -10 3 -8
v -10 4 -8
v -10 5 -8
v -10 6 -8
v -10 8 -8
v -9 2 -8
v -9 3 -8
v -9 5 -8
v -9 6 -8
v -9 8 -8
v -9 9 -8
v -8 9 -8
v -8 10 -8
v -7 2 -8
v -7 4 -8
v -6 1 -8
v -6 2 -8
v -6 4 -8
v -6 5 -8
v -4 1 -8
v -4 2 -8
v -4 4 -8
v -4 5 -8
v -3 2 -8
v -3 4 -8
v 2 2 -8
v 2 4 -8
v 3 1 -8
v 3 2 -8
v 3 4 -8
v 3 5 -8
v 4 7 -8
v 4 9 -8
v 5 1 -8
v 5 2 -8
v 5 4 -8
v 5 5 -8
v 5 9 -8
v 5 10 -8
v 6 2 -8
v 6 4 -8
v 6 7 -8
v 6 9 -8
v 7 2 -8
v 7 3 -8
v 8 5 -8
v 8 6 -8
v 9 3 -8
v 9 4 -8
v 9 5 -8
v 9 6 -8
v 9 7 -8
v -27 0 -27
v -27 1 -27
v 27 0 -27
v 27 1 -27
v -27 0 27
v 27 0 27
v -27 0 -27
v 27 0 -27
v -9 2 -1
v -7 2 -1
v -6 2 -1
v -4 2 -1
v -3 2 -1
v 2 2 -1
v 3 2 -1
v 5 2 -1
v 6 2 -1
v 7 2 -1
v -9 2 -2
v -7 2 -2
v -6 2 -2
v -4 2 -2
v -3 2 -2
v 2 2 -2
v 3 2 -2
v 5 2 -2
v 6 2 -2
v 7 2 -2
v -9 2 -7
v -7 2 -7
v -6 2 -7
v -4 2 -7
v -3 2 -7
v 2 2 -7
v 3 2 -7
v 5 2 -7
v 6 2 -7
v 7 2 -7
v -9 2 -8
v -7 2 -8
v -6 2 -8
v -4 2 -8
v -3 2 -8
v 2 2 -8
v 3 2 -8
v 5 2 -8
v 6 2 -8
v 7 2 -8
v -10 3 -1
v -9 3 -1
v 7 3 -1
v 9 3 -1
v -9 3 -2
v 7 3 -2
v 8 3 -2
v -9 3 -7
v 7 3 -7
v 8 3 -7
v -10 3 -8
v -9 3 -8
v 7 3 -8
v 9 3 -8
v -9 4 -2
v -7 4 -2
v -6 4 -2
v -4 4 -2
v -3 4 -2
v 2 4 -2
v 3 4 -2
v 5 4 -2
v 6 4 -2
v 8 4 -2
v -9 4 -7
v -7 4 -7
v -6 4 -7
v -4 4 -7
v -3 4 -7
v 2 4 -7
v 3 4 -7
v 5 4 -7
v 6 4 -7
v 8 4 -7
v 5 6 -2
v 8 6 -2
v 8 6 -3
v 8 6 -4
v 8 6 -5
v 8 6 -6
v 5 6 -7
v 8 6 -7
v 3 7 -2
v 4 7 -2
v 5 7 -2
v 3 7 -7
v 4 7 -7
v 5 7 -7
v -9 8 -2
v -7 8 -2
v -9 8 -7
v -7 8 -7
v -7 9 -2
v 3 9 -2
v 4 9 -2
v -7 9 -7
v 4 9 -7
v -27 1 27
v 27 1 27
v -6 1 -1
v -4 1 -1
v 3 1 -1
v 5 1 -1
v -6 1 -2
v -4 1 -2
v 3 1 -2
v 5 1 -2
v -6 1 -7
v -4 1 -7
v 3 1 -7
v 5 1 -7
v -6 1 -8
v -4 1 -8
v 3 1 -8
v 5 1 -8
v -27 1 -27
v 27 1 -27
v -9 5 -2
v 8 5 -2
v 8 5 -3
v 8 5 -4
v 8 5 -5
v 8 5 -6
v -9 5 -7
v 8 5 -7
v 6 7 -1
v 9 7 -1
v 6 7 -8
v 9 7 -8
v -10 8 -1
v -9 8 -1
v 3 8 -2
v 4 8 -2
v 3 8 -7
v 4 8 -7
v -10 8 -8
v -9 8 -8
v -9 9 -1
v -8 9 -1
v 5 9 -1
v 6 9 -1
v -9 9 -8
v -8 9 -8
v 5 9 -8
v 6 9 -8
v -8 10 -1
v 5 10 -1
v -8 10 -8
v 5 10 -8

# faces
f 3/1/1 2/1/1 1/1/1
f 4/1/1 2/1/1 3/1/1
f 7/13/1 6/13/1 5/13/1
f 8/13/1 6/13/1 7/13/1
f 9/13/1 6/13/1 8/13/1
f 10/13/1 6/13/1 9/13/1
f 11/7/1 8/7/1 7/7/1
f 12/7/1 8/7/1 11/7/1
f 13/8/1 9/8/1 8/8/1
f 13/7/1 8/7/1 12/7/1
f 14/7/1 10/7/1 9/7/1
f 14/8/1 9/8/1 13/8/1
f 15/7/1 10/7/1 14/7/1
f 16/7/1 10/7/1 15/7/1
f 17/6/1 12/6/1 11/6/1
f 18/7/1 13/7/1 12/7/1
f 18/6/1 12/6/1 17/6/1
f 18/7/1 14/7/1 13/7/1
f 18/7/1 15/7/1 14/7/1
f 19/5/1 16/5/1 15/5/1
f 19/7/1 15/7/1 18/7/1
f 20/5/1 16/5/1 19/5/1
f 21/7/1 18/7/1 17/7/1
f 21/7/1 19/7/1 18/7/1
f 21/7/1 20/7/1 19/7/1
f 22/7/1 20/7/1 21/7/1
f 27/13/1 24/13/1 23/13/1
f 28/13/1 24/13/1 27/13/1
f 29/13/1 26/13/1 25/13/1
f 30/13/1 26/13/1 29/13/1
f 33/7/1 32/7/1 31/7/1
f 34/7/1 32/7/1 33/7/1
f 37/7/1 36/7/1 35/7/1
f 38/7/1 36/7/1 37/7/1
f 43/12/1 40/12/1 39/12/1
f 44/12/1 40/12/1 43/12/1
f 45/12/1 42/12/1 41/12/1
f 46/12/1 42/12/1 45/12/1
f 51/12/1 48/12/1 47/12/1
f 52/12/1 48/12/1 51/12/1
f 53/12/1 50/12/1 49/12/1
f 54/12/1 50/12/1 53/12/1
f 57/4/1 56/4/1 55/4/1
f 58/4/1 56/4/1 57/4/1
f 61/7/1 60/7/1 59/7/1
f 62/7/1 60/7/1 61/7/1
f 65/7/1 64/7/1 63/7/1
f 66/7/1 64/7/1 65/7/1
f 69/13/1 68/13/1 67/13/1
f 70/13/1 68/13/1 69/13/1
f 77/10/1 72/10/1 71/10/1
f 78/13/1 73/13/1 72/13/1
f 78/10/1 72/10/1 77/10/1
f 79/9/1 74/9/1 73/9/1
f 79/13/1 73/13/1 78/13/1
f 80/13/1 75/13/1 74/13/1
f 80/9/1 74/9/1 79/9/1
f 81/9/1 76/9/1 75/9/1
f 81/13/1 75/13/1 80/13/1
f 82/9/1 76/9/1 81/9/1
f 83/13/2 84/13/2 85/13/2
f 85/13/2 84/13/2 86/13/2
f 87/7/2 88/7/2 89/7/2
f 89/7/2 88/7/2 90/7/2
f 91/7/2 92/7/2 93/7/2
f 93/7/2 92/7/2 94/7/2
f 95/12/2 96/12/2 99/12/2
f 99/12/2 96/12/2 100/12/2
f 97/12/2 98/12/2 101/12/2
f 101/12/2 98/12/2 102/12/2
f 103/12/2 104/12/2 107/12/2
f 107/12/2 104/12/2 108/12/2
f 105/12/2 106/12/2 109/12/2
f 109/12/2 106/12/2 110/12/2
f 111/7/2 112/7/2 113/7/2
f 113/7/2 112/7/2 114/7/2
f 115/4/2 116/4/2 117/4/2
f 117/4/2 116/4/2 118/4/2
f 119/13/2 120/13/2 123/13/2
f 123/13/2 120/13/2 124/13/2
f 121/13/2 122/13/2 125/13/2
f 125/13/2 122/13/2 126/13/2
f 127/13/2 128/13/2 129/13/2
f 129/13/2 128/13/2 130/13/2
f 129/7/2 130/7/2 131/7/2
f 131/7/2 130/7/2 132/7/2
f 132/7/2 130/7/2 133/7/2
f 133/7/2 130/7/2 134/7/2
f 134/7/2 130/7/2 135/7/2
f 135/7/2 130/7/2 136/7/2
f 136/7/2 130/7/2 137/7/2
f 137/7/2 130/7/2 138/7/2
f 131/2/2 132/2/2 139/2/2
f 132/10/2 133/10/2 140/10/2
f 139/2/2 132/2/2 140/2/2
f 133/13/2 134/13/2 141/13/2
f 140/10/2 133/10/2 141/10/2
f 134/9/2 135/9/2 142/9/2
f 141/13/2 134/13/2 142/13/2
f 135/13/2 136/13/2 143/13/2
f 142/9/2 135/9/2 143/9/2
f 136/9/2 137/9/2 144/9/2
f 143/13/2 136/13/2 144/13/2
f 137/2/2 138/2/2 145/2/2
f 144/9/2 137/9/2 145/9/2
f 145/2/2 138/2/2 146/2/2
f 139/7/2 140/7/2 147/7/2
f 140/7/2 141/7/2 147/7/2
f 145/7/2 146/7/2 147/7/2
f 144/7/2 145/7/2 147/7/2
f 143/7/2 144/7/2 147/7/2
f 142/7/2 143/7/2 147/7/2
f 141/7/2 142/7/2 147/7/2
f 147/7/2 146/7/2 148/7/2
f 149/1/2 150/1/2 151/1/2
f 151/1/2 150/1/2 152/1/2
f 155/1/3 154/1/3 153/1/3
f 156/1/3 154/1/3 155/1/3
f 163/13/3 158/13/3 157/13/3
f 164/7/3 159/7/3 158/7/3
f 164/6/3 160/6/3 159/6/3
f 165/7/3 161/7/3 160/7/3
f 165/6/3 160/6/3 164/6/3
f 166/7/3 161/7/3 165/7/3
f 168/7/3 165/7/3 164/7/3
f 168/7/3 167/7/3 166/7/3
f 168/7/3 166/7/3 165/7/3
f 170/13/3 163/13/3 162/13/3
f 171/7/3 164/7/3 158/7/3
f 171/13/3 163/13/3 170/13/3
f 171/7/3 169/7/3 168/7/3
f 171/7/3 168/7/3 164/7/3
f 171/13/3 158/13/3 163/13/3
f 173/12/3 171/12/3 170/12/3
f 174/7/3 169/7/3 171/7/3
f 174/12/3 171/12/3 173/12/3
f 175/7/3 169/7/3 174/7/3
f 176/12/3 173/12/3 172/12/3
f 177/11/3 174/11/3 173/11/3
f 177/12/3 173/12/3 176/12/3
f 178/12/3 175/12/3 174/12/3
f 178/11/3 174/11/3 177/11/3
f 179/7/3 169/7/3 175/7/3
f 179/12/3 175/12/3 178/12/3
f 180/12/3 178/12/3 177/12/3
f 181/7/3 179/7/3 178/7/3
f 181/12/3 178/12/3 180/12/3
f 182/13/3 181/13/3 180/13/3
f 183/7/3 179/7/3 181/7/3
f 183/13/3 181/13/3 182/13/3
f 185/12/3 183/12/3 182/12/3
f 186/7/3 179/7/3 183/7/3
f 186/12/3 183/12/3 185/12/3
f 187/7/3 169/7/3 179/7/3
f 187/7/3 179/7/3 186/7/3
f 188/7/3 169/7/3 187/7/3
f 189/7/3 169/7/3 188/7/3
f 190/12/3 185/12/3 184/12/3
f 191/11/3 186/11/3 185/11/3
f 191/12/3 185/12/3 190/12/3
f 192/12/3 187/12/3 186/12/3
f 192/11/3 186/11/3 191/11/3
f 193/7/3 188/7/3 187/7/3
f 193/12/3 187/12/3 192/12/3
f 194/7/3 169/7/3 189/7/3
f 194/4/3 189/4/3 188/4/3
f 195/7/3 169/7/3 194/7/3
f 196/12/3 192/12/3 191/12/3
f 197/7/3 193/7/3 192/7/3
f 197/12/3 192/12/3 196/12/3
f 198/7/3 188/7/3 193/7/3
f 198/7/3 193/7/3 197/7/3
f 198/4/3 194/4/3 188/4/3
f 199/4/3 194/4/3 198/4/3
f 200/13/3 197/13/3 196/13/3
f 201/13/3 197/13/3 200/13/3
f 202/7/3 198/7/3 197/7/3
f 203/7/3 198/7/3 202/7/3
f 204/13/3 197/13/3 201/13/3
f 205/7/3 202/7/3 197/7/3
f 205/13/3 197/13/3 204/13/3
f 206/2/3 203/2/3 202/2/3
f 206/7/3 202/7/3 205/7/3
f 207/7/3 198/7/3 203/7/3
f 207/2/3 203/2/3 206/2/3
f 208/7/3 198/7/3 207/7/3
f 214/13/3 210/13/3 209/13/3
f 214/13/3 211/13/3 210/13/3
f 215/13/3 211/13/3 214/13/3
f 216/7/3 213/7/3 212/7/3
f 219/12/3 215/12/3 214/12/3
f 220/12/3 215/12/3 219/12/3
f 221/12/3 219/12/3 218/12/3
f 222/11/3 220/11/3 219/11/3
f 222/12/3 219/12/3 221/12/3
f 223/11/3 220/11/3 222/11/3
f 224/12/3 223/12/3 222/12/3
f 225/12/3 223/12/3 224/12/3
f 226/13/3 225/13/3 224/13/3
f 227/13/3 225/13/3 226/13/3
f 229/12/3 227/12/3 226/12/3
f 230/12/3 227/12/3 229/12/3
f 231/7/3 217/7/3 216/7/3
f 231/7/3 216/7/3 212/7/3
f 232/7/3 217/7/3 231/7/3
f 233/7/3 231/7/3 212/7/3
f 234/7/3 217/7/3 232/7/3
f 235/7/3 217/7/3 234/7/3
f 236/12/3 229/12/3 228/12/3
f 237/11/3 230/11/3 229/11/3
f 237/12/3 229/12/3 236/12/3
f 238/11/3 230/11/3 237/11/3
f 239/7/3 233/7/3 212/7/3
f 240/7/3 233/7/3 239/7/3
f 241/12/3 238/12/3 237/12/3
f 242/12/3 238/12/3 241/12/3
f 243/13/3 242/13/3 241/13/3
f 244/13/3 242/13/3 243/13/3
f 245/13/3 242/13/3 244/13/3
f 246/13/3 242/13/3 245/13/3
f 247/7/3 239/7/3 212/7/3
f 248/7/3 239/7/3 247/7/3
f 249/13/4 250/13/4 254/13/4
f 250/13/4 251/13/4 254/13/4
f 254/13/4 251/13/4 255/13/4
f 252/7/4 253/7/4 256/7/4
f 254/12/4 255/12/4 259/12/4
f 259/12/4 255/12/4 260/12/4
f 258/12/4 259/12/4 261/12/4
f 259/11/4 260/11/4 262/11/4
f 261/12/4 259/12/4 262/12/4
f 262/11/4 260/11/4 263/11/4
f 262/12/4 263/12/4 264/12/4
f 264/12/4 263/12/4 265/12/4
f 264/13/4 265/13/4 266/13/4
f 266/13/4 265/13/4 267/13/4
f 266/12/4 267/12/4 269/12/4
f 269/12/4 267/12/4 270/12/4
f 256/7/4 257/7/4 271/7/4
f 252/7/4 256/7/4 271/7/4
f 271/7/4 257/7/4 272/7/4
f 272/7/4 257/7/4 273/7/4
f 252/7/4 271/7/4 274/7/4
f 272/4/4 273/4/4 275/4/4
f 275/4/4 273/4/4 276/4/4
f 268/12/4 269/12/4 277/12/4
f 269/11/4 270/11/4 278/11/4
f 277/12/4 269/12/4 278/12/4
f 278/11/4 270/11/4 279/11/4
f 252/7/4 274/7/4 280/7/4
f 280/7/4 274/7/4 281/7/4
f 278/12/4 279/12/4 282/12/4
f 282/12/4 279/12/4 283/12/4
f 282/13/4 283/13/4 284/13/4
f 284/13/4 283/13/4 285/13/4
f 285/13/4 283/13/4 286/13/4
f 286/13/4 283/13/4 287/13/4
f 252/7/4 280/7/4 288/7/4
f 288/7/4 280/7/4 289/7/4
f 290/13/4 291/13/4 296/13/4
f 291/7/4 292/7/4 297/7/4
f 292/5/4 293/5/4 297/5/4
f 293/7/4 294/7/4 298/7/4
f 297/5/4 293/5/4 298/5/4
f 298/7/4 294/7/4 299/7/4
f 297/7/4 298/7/4 301/7/4
f 299/7/4 300/7/4 301/7/4
f 298/7/4 299/7/4 301/7/4
f 295/13/4 296/13/4 303/13/4
f 291/7/4 297/7/4 304/7/4
f 303/13/4 296/13/4 304/13/4
f 301/7/4 302/7/4 304/7/4
f 297/7/4 301/7/4 304/7/4
f 296/13/4 291/13/4 304/13/4
f 303/12/4 304/12/4 306/12/4
f 304/7/4 302/7/4 307/7/4
f 306/12/4 304/12/4 307/12/4
f 307/7/4 302/7/4 308/7/4
f 305/12/4 306/12/4 309/12/4
f 306/11/4 307/11/4 310/11/4
f 309/12/4 306/12/4 310/12/4
f 307/12/4 308/12/4 311/12/4
f 310/11/4 307/11/4 311/11/4
f 308/7/4 302/7/4 312/7/4
f 311/12/4 308/12/4 312/12/4
f 310/12/4 311/12/4 313/12/4
f 311/7/4 312/7/4 314/7/4
f 313/12/4 311/12/4 314/12/4
f 313/13/4 314/13/4 315/13/4
f 314/7/4 312/7/4 316/7/4
f 315/13/4 314/13/4 316/13/4
f 315/12/4 316/12/4 318/12/4
f 316/7/4 312/7/4 319/7/4
f 318/12/4 316/12/4 319/12/4
f 312/7/4 302/7/4 320/7/4
f 319/7/4 312/7/4 320/7/4
f 320/7/4 302/7/4 321/7/4
f 321/7/4 302/7/4 322/7/4
f 317/12/4 318/12/4 323/12/4
f 318/11/4 319/11/4 324/11/4
f 323/12/4 318/12/4 324/12/4
f 319/12/4 320/12/4 325/12/4
f 324/11/4 319/11/4 325/11/4
f 320/7/4 321/7/4 326/7/4
f 325/12/4 320/12/4 326/12/4
f 322/7/4 302/7/4 327/7/4
f 321/4/4 322/4/4 327/4/4
f 327/7/4 302/7/4 328/7/4
f 324/12/4 325/12/4 329/12/4
f 325/7/4 326/7/4 330/7/4
f 329/12/4 325/12/4 330/12/4
f 326/7/4 321/7/4 331/7/4
f 330/7/4 326/7/4 331/7/4
f 321/4/4 327/4/4 331/4/4
f 331/4/4 327/4/4 332/4/4
f 329/13/4 330/13/4 333/13/4
f 333/13/4 330/13/4 334/13/4
f 330/7/4 331/7/4 335/7/4
f 335/7/4 331/7/4 336/7/4
f 334/13/4 330/13/4 337/13/4
f 330/7/4 335/7/4 338/7/4
f 337/13/4 330/13/4 338/13/4
f 335/2/4 336/2/4 339/2/4
f 338/7/4 335/7/4 339/7/4
f 336/7/4 331/7/4 340/7/4
f 339/2/4 336/2/4 340/2/4
f 340/7/4 331/7/4 341/7/4
f 342/1/4 343/1/4 344/1/4
f 344/1/4 343/1/4 345/1/4
f 348/1/5 347/1/5 346/1/5
f 349/1/5 347/1/5 348/1/5
f 360/13/5 351/13/5 350/13/5
f 361/12/5 352/12/5 351/12/5
f 361/13/5 351/13/5 360/13/5
f 362/12/5 352/12/5 361/12/5
f 363/12/5 354/12/5 353/12/5
f 364/13/5 355/13/5 354/13/5
f 364/12/5 354/12/5 363/12/5
f 365/12/5 356/12/5 355/12/5
f 365/13/5 355/13/5 364/13/5
f 366/12/5 356/12/5 365/12/5
f 367/12/5 358/12/5 357/12/5
f 368/13/5 359/13/5 358/13/5
f 368/12/5 358/12/5 367/12/5
f 369/13/5 359/13/5 368/13/5
f 380/13/5 371/13/5 370/13/5
f 381/12/5 372/12/5 371/12/5
f 381/13/5 371/13/5 380/13/5
f 382/12/5 372/12/5 381/12/5
f 383/12/5 374/12/5 373/12/5
f 384/13/5 375/13/5 374/13/5
f 384/12/5 374/12/5 383/12/5
f 385/12/5 376/12/5 375/12/5
f 385/13/5 375/13/5 384/13/5
f 386/12/5 376/12/5 385/12/5
f 387/12/5 378/12/5 377/12/5
f 388/13/5 379/13/5 378/13/5
f 388/12/5 378/12/5 387/12/5
f 389/13/5 379/13/5 388/13/5
f 394/13/5 391/13/5 390/13/5
f 395/13/5 393/13/5 392/13/5
f 396/13/5 393/13/5 395/13/5
f 397/13/5 394/13/5 390/13/5
f 399/13/5 393/13/5 396/13/5
f 400/13/5 397/13/5 390/13/5
f 401/13/5 397/13/5 400/13/5
f 402/13/5 399/13/5 398/13/5
f 403/13/5 393/13/5 399/13/5
f 403/13/5 399/13/5 402/13/5
f 414/13/5 405/13/5 404/13/5
f 414/13/5 413/13/5 412/13/5
f 414/13/5 412/13/5 411/13/5
f 414/13/5 411/13/5 410/13/5
f 414/13/5 410/13/5 409/13/5
f 414/13/5 409/13/5 408/13/5
f 414/13/5 408/13/5 407/13/5
f 414/13/5 407/13/5 406/13/5
f 414/13/5 406/13/5 405/13/5
f 415/13/5 413/13/5 414/13/5
f 416/13/5 413/13/5 415/13/5
f 417/13/5 413/13/5 416/13/5
f 418/13/5 413/13/5 417/13/5
f 419/13/5 413/13/5 418/13/5
f 420/13/5 413/13/5 419/13/5
f 421/13/5 413/13/5 420/13/5
f 422/13/5 413/13/5 421/13/5
f 423/13/5 413/13/5 422/13/5
f 426/7/5 425/7/5 424/7/5
f 427/7/5 426/7/5 424/7/5
f 428/7/5 427/7/5 424/7/5
f 429/7/5 428/7/5 424/7/5
f 430/7/5 429/7/5 424/7/5
f 431/7/5 429/7/5 430/7/5
f 435/4/5 433/4/5 432/4/5
f 436/3/5 434/3/5 433/3/5
f 436/4/5 433/4/5 435/4/5
f 437/3/5 434/3/5 436/3/5
f 440/7/5 439/7/5 438/7/5
f 441/7/5 439/7/5 440/7/5
f 445/7/5 443/7/5 442/7/5
f 445/7/5 444/7/5 443/7/5
f 446/7/5 444/7/5 445/7/5
f 447/1/6 448/1/6 449/1/6
f 449/1/6 448/1/6 450/1/6
f 450/1/6 448/1/6 451/1/6
f 451/1/6 448/1/6 452/1/6
f 447/1/6 449/1/6 453/1/6
f 450/1/6 451/1/6 454/1/6
f 454/1/6 451/1/6 455/1/6
f 452/1/6 448/1/6 456/1/6
f 454/1/6 455/1/6 457/1/6
f 455/1/6 456/1/6 457/1/6
f 447/1/6 453/1/6 457/1/6
f 453/1/6 454/1/6 457/1/6
f 457/1/6 456/1/6 458/1/6
f 458/1/6 456/1/6 459/1/6
f 456/1/6 448/1/6 460/1/6
f 459/1/6 456/1/6 460/1/6
f 447/1/6 457/1/6 461/1/6
f 458/1/6 459/1/6 462/1/6
f 462/1/6 459/1/6 463/1/6
f 460/1/6 448/1/6 464/1/6
f 447/1/6 461/1/6 465/1/6
f 463/1/6 464/1/6 465/1/6
f 462/1/6 463/1/6 465/1/6
f 461/1/6 462/1/6 465/1/6
f 464/1/6 448/1/6 466/1/6
f 465/1/6 464/1/6 466/1/6
f 467/13/6 468/13/6 469/13/6
f 467/13/6 469/13/6 470/13/6
f 467/13/6 470/13/6 471/13/6
f 467/13/6 471/13/6 472/13/6
f 467/13/6 472/13/6 473/13/6
f 473/13/6 472/13/6 474/13/6
f 475/7/6 476/7/6 477/7/6
f 477/7/6 476/7/6 478/7/6
f 481/4/6 482/4/6 483/4/6
f 483/4/6 482/4/6 484/4/6
f 479/7/6 480/7/6 485/7/6
f 485/7/6 480/7/6 486/7/6
f 487/7/6 488/7/6 491/7/6
f 491/7/6 488/7/6 492/7/6
f 489/4/6 490/4/6 493/4/6
f 493/4/6 490/4/6 494/4/6
f 495/7/6 496/7/6 497/7/6
f 497/7/6 496/7/6 498/7/6
